<mxfile host="app.diagrams.net" modified="2023-06-11T08:41:57.134Z" agent="Mozilla/5.0 (Macintosh; Intel Mac OS X 10_15_7) AppleWebKit/537.36 (KHTML, like Gecko) Chrome/114.0.0.0 Safari/537.36" version="21.3.8" etag="5D5CEasrVMdHaUo7eNgU" type="github">
  <diagram name="Page-1" id="EKdgvo4XqNNNnAJi3LeK">
    <mxGraphModel>
      <root>
        <mxCell id="0" />
        <mxCell id="1" parent="0" />
      </root>
    </mxGraphModel>
  </diagram>
</mxfile>
